<svg width="12" height="12" viewBox="0 0 12 12" fill="none" xmlns="http://www.w3.org/2000/svg">
<path d="M11 5H3.41002L6.71002 1.71C6.89832 1.5217 7.00411 1.2663 7.00411 1C7.00411 0.733701 6.89832 0.478306 6.71002 0.290002C6.52172 0.101699 6.26632 -0.00408936 6.00002 -0.00408936C5.73372 -0.00408936 5.47832 0.101699 5.29002 0.290002L0.290018 5.29C0.198978 5.38511 0.127613 5.49725 0.0800184 5.62C-0.0199996 5.86346 -0.0199996 6.13654 0.0800184 6.38C0.127613 6.50275 0.198978 6.6149 0.290018 6.71L5.29002 11.71C5.38298 11.8037 5.49358 11.8781 5.61544 11.9289C5.7373 11.9797 5.86801 12.0058 6.00002 12.0058C6.13203 12.0058 6.26274 11.9797 6.3846 11.9289C6.50645 11.8781 6.61706 11.8037 6.71002 11.71C6.80375 11.617 6.87814 11.5064 6.92891 11.3846C6.97968 11.2627 7.00582 11.132 7.00582 11C7.00582 10.868 6.97968 10.7373 6.92891 10.6154C6.87814 10.4936 6.80375 10.383 6.71002 10.29L3.41002 7H11C11.2652 7 11.5196 6.89465 11.7071 6.70711C11.8947 6.51957 12 6.26522 12 6C12 5.73479 11.8947 5.48043 11.7071 5.2929C11.5196 5.10536 11.2652 5 11 5Z" fill="white"/>
</svg>
