<svg width="375" height="812" viewBox="0 0 375 812" fill="none" xmlns="http://www.w3.org/2000/svg">
<g clip-path="url(#clip0_0_56)">
<rect width="375" height="812" rx="16" fill="white"/>
<rect x="20" y="196" width="336" height="56" rx="12" fill="#F3F4F6"/>
<path d="M45.1477 230V218.364H49.5114C50.4053 218.364 51.1553 218.519 51.7614 218.83C52.3712 219.14 52.8314 219.576 53.142 220.136C53.4564 220.693 53.6136 221.343 53.6136 222.085C53.6136 222.831 53.4545 223.479 53.1364 224.028C52.822 224.574 52.358 224.996 51.7443 225.295C51.1307 225.591 50.3769 225.739 49.483 225.739H46.375V223.989H49.1989C49.7216 223.989 50.1496 223.917 50.483 223.773C50.8163 223.625 51.0625 223.411 51.2216 223.131C51.3845 222.847 51.4659 222.498 51.4659 222.085C51.4659 221.672 51.3845 221.32 51.2216 221.028C51.0587 220.733 50.8106 220.509 50.4773 220.358C50.1439 220.203 49.714 220.125 49.1875 220.125H47.2557V230H45.1477ZM51.1591 224.727L54.0398 230H51.6875L48.858 224.727H51.1591ZM61.0256 226.33V221.273H63.0824V230H61.0881V228.449H60.9972C60.8002 228.937 60.4763 229.337 60.0256 229.648C59.5786 229.958 59.0275 230.114 58.3722 230.114C57.8002 230.114 57.2945 229.987 56.8551 229.733C56.4195 229.475 56.0786 229.102 55.8324 228.614C55.5862 228.121 55.4631 227.527 55.4631 226.83V221.273H57.5199V226.511C57.5199 227.064 57.6714 227.504 57.9744 227.83C58.2775 228.155 58.6752 228.318 59.1676 228.318C59.4706 228.318 59.7642 228.244 60.0483 228.097C60.3324 227.949 60.5653 227.729 60.7472 227.438C60.9328 227.142 61.0256 226.773 61.0256 226.33ZM72.0952 223.58L70.2202 223.784C70.1671 223.595 70.0743 223.417 69.9418 223.25C69.813 223.083 69.6387 222.949 69.419 222.847C69.1993 222.744 68.9304 222.693 68.6122 222.693C68.1842 222.693 67.8243 222.786 67.5327 222.972C67.2448 223.157 67.1027 223.398 67.1065 223.693C67.1027 223.947 67.1955 224.153 67.3849 224.312C67.5781 224.472 67.8963 224.602 68.3395 224.705L69.8281 225.023C70.6539 225.201 71.2675 225.483 71.669 225.869C72.0743 226.256 72.2789 226.761 72.2827 227.386C72.2789 227.936 72.1179 228.42 71.7997 228.841C71.4853 229.258 71.0478 229.583 70.4872 229.818C69.9266 230.053 69.2827 230.17 68.5554 230.17C67.4872 230.17 66.6274 229.947 65.9759 229.5C65.3243 229.049 64.9361 228.422 64.8111 227.619L66.8168 227.426C66.9077 227.82 67.1009 228.117 67.3963 228.318C67.6918 228.519 68.0762 228.619 68.5497 228.619C69.0384 228.619 69.4304 228.519 69.7259 228.318C70.0251 228.117 70.1747 227.869 70.1747 227.574C70.1747 227.324 70.0781 227.117 69.8849 226.955C69.6955 226.792 69.4001 226.667 68.9986 226.58L67.5099 226.267C66.6728 226.093 66.0535 225.799 65.652 225.386C65.2505 224.97 65.0516 224.443 65.0554 223.807C65.0516 223.269 65.1974 222.803 65.4929 222.409C65.7921 222.011 66.2069 221.705 66.7372 221.489C67.2713 221.269 67.8868 221.159 68.5838 221.159C69.6065 221.159 70.4115 221.377 70.9986 221.812C71.5895 222.248 71.955 222.837 72.0952 223.58ZM80.8764 223.58L79.0014 223.784C78.9484 223.595 78.8556 223.417 78.723 223.25C78.5942 223.083 78.42 222.949 78.2003 222.847C77.9806 222.744 77.7116 222.693 77.3935 222.693C76.9654 222.693 76.6056 222.786 76.3139 222.972C76.026 223.157 75.884 223.398 75.8878 223.693C75.884 223.947 75.9768 224.153 76.1662 224.312C76.3594 224.472 76.6776 224.602 77.1207 224.705L78.6094 225.023C79.4351 225.201 80.0488 225.483 80.4503 225.869C80.8556 226.256 81.0601 226.761 81.0639 227.386C81.0601 227.936 80.8991 228.42 80.581 228.841C80.2666 229.258 79.8291 229.583 79.2685 229.818C78.7079 230.053 78.0639 230.17 77.3366 230.17C76.2685 230.17 75.4086 229.947 74.7571 229.5C74.1056 229.049 73.7173 228.422 73.5923 227.619L75.598 227.426C75.6889 227.82 75.8821 228.117 76.1776 228.318C76.473 228.519 76.8575 228.619 77.331 228.619C77.8196 228.619 78.2116 228.519 78.5071 228.318C78.8063 228.117 78.956 227.869 78.956 227.574C78.956 227.324 78.8594 227.117 78.6662 226.955C78.4768 226.792 78.1813 226.667 77.7798 226.58L76.2912 226.267C75.4541 226.093 74.8348 225.799 74.4332 225.386C74.0317 224.97 73.8329 224.443 73.8366 223.807C73.8329 223.269 73.9787 222.803 74.2741 222.409C74.5734 222.011 74.9882 221.705 75.5185 221.489C76.0526 221.269 76.6681 221.159 77.3651 221.159C78.3878 221.159 79.1927 221.377 79.7798 221.812C80.3707 222.248 80.7363 222.837 80.8764 223.58ZM82.7599 230V221.273H84.8168V230H82.7599ZM83.794 220.034C83.4683 220.034 83.188 219.926 82.9531 219.71C82.7183 219.491 82.6009 219.227 82.6009 218.92C82.6009 218.61 82.7183 218.347 82.9531 218.131C83.188 217.911 83.4683 217.801 83.794 217.801C84.1236 217.801 84.4039 217.911 84.6349 218.131C84.8698 218.347 84.9872 218.61 84.9872 218.92C84.9872 219.227 84.8698 219.491 84.6349 219.71C84.4039 219.926 84.1236 220.034 83.794 220.034ZM89.4432 230.176C88.8902 230.176 88.392 230.078 87.9489 229.881C87.5095 229.68 87.161 229.384 86.9034 228.994C86.6496 228.604 86.5227 228.123 86.5227 227.551C86.5227 227.059 86.6136 226.652 86.7955 226.33C86.9773 226.008 87.2254 225.75 87.5398 225.557C87.8542 225.364 88.2083 225.218 88.6023 225.119C89 225.017 89.411 224.943 89.8352 224.898C90.3466 224.845 90.7614 224.797 91.0795 224.756C91.3977 224.71 91.6288 224.642 91.7727 224.551C91.9205 224.456 91.9943 224.311 91.9943 224.114V224.08C91.9943 223.652 91.8674 223.32 91.6136 223.085C91.3598 222.85 90.9943 222.733 90.517 222.733C90.0133 222.733 89.6136 222.843 89.3182 223.062C89.0265 223.282 88.8295 223.542 88.7273 223.841L86.8068 223.568C86.9583 223.038 87.2083 222.595 87.5568 222.239C87.9053 221.879 88.3314 221.61 88.8352 221.432C89.339 221.25 89.8958 221.159 90.5057 221.159C90.9261 221.159 91.3447 221.208 91.7614 221.307C92.178 221.405 92.5587 221.568 92.9034 221.795C93.2481 222.019 93.5246 222.324 93.733 222.71C93.9451 223.097 94.0511 223.58 94.0511 224.159V230H92.0739V228.801H92.0057C91.8807 229.044 91.7045 229.271 91.4773 229.483C91.2538 229.691 90.9716 229.86 90.6307 229.989C90.2936 230.114 89.8977 230.176 89.4432 230.176ZM89.9773 228.665C90.3902 228.665 90.7481 228.583 91.0511 228.42C91.3542 228.254 91.5871 228.034 91.75 227.761C91.9167 227.489 92 227.191 92 226.869V225.841C91.9356 225.894 91.8258 225.943 91.6705 225.989C91.5189 226.034 91.3485 226.074 91.1591 226.108C90.9697 226.142 90.7822 226.172 90.5966 226.199C90.411 226.225 90.25 226.248 90.1136 226.267C89.8068 226.309 89.5322 226.377 89.2898 226.472C89.0473 226.566 88.8561 226.699 88.7159 226.869C88.5758 227.036 88.5057 227.252 88.5057 227.517C88.5057 227.896 88.6439 228.182 88.9205 228.375C89.197 228.568 89.5492 228.665 89.9773 228.665ZM98.1761 224.886V230H96.1193V221.273H98.0852V222.756H98.1875C98.3883 222.267 98.7083 221.879 99.1477 221.591C99.5909 221.303 100.138 221.159 100.79 221.159C101.392 221.159 101.917 221.288 102.364 221.545C102.814 221.803 103.163 222.176 103.409 222.665C103.659 223.153 103.782 223.746 103.778 224.443V230H101.722V224.761C101.722 224.178 101.57 223.722 101.267 223.392C100.968 223.062 100.553 222.898 100.023 222.898C99.6629 222.898 99.3428 222.977 99.0625 223.136C98.786 223.292 98.5682 223.517 98.4091 223.812C98.2538 224.108 98.1761 224.466 98.1761 224.886Z" fill="#666C8E"/>
<rect x="20" y="124" width="336" height="56" rx="12" fill="#475AD7"/>
<path d="M45.1477 158V146.364H52.7159V148.131H47.2557V151.29H52.3239V153.057H47.2557V156.233H52.7614V158H45.1477ZM56.8324 152.886V158H54.7756V149.273H56.7415V150.756H56.8438C57.0445 150.267 57.3646 149.879 57.804 149.591C58.2472 149.303 58.7945 149.159 59.446 149.159C60.0483 149.159 60.5729 149.288 61.0199 149.545C61.4706 149.803 61.8191 150.176 62.0653 150.665C62.3153 151.153 62.4384 151.746 62.4347 152.443V158H60.3778V152.761C60.3778 152.178 60.2263 151.722 59.9233 151.392C59.6241 151.062 59.2093 150.898 58.679 150.898C58.3191 150.898 57.9991 150.977 57.7188 151.136C57.4422 151.292 57.2244 151.517 57.0653 151.812C56.91 152.108 56.8324 152.466 56.8324 152.886ZM68.321 161.455C67.5824 161.455 66.9479 161.354 66.4176 161.153C65.8873 160.956 65.4612 160.691 65.1392 160.358C64.8172 160.025 64.5938 159.655 64.4688 159.25L66.321 158.801C66.4044 158.972 66.5256 159.14 66.6847 159.307C66.8438 159.477 67.0578 159.617 67.3267 159.727C67.5994 159.841 67.9422 159.898 68.3551 159.898C68.9384 159.898 69.4214 159.756 69.804 159.472C70.1866 159.191 70.3778 158.729 70.3778 158.085V156.432H70.2756C70.1695 156.644 70.0142 156.862 69.8097 157.085C69.6089 157.309 69.3419 157.496 69.0085 157.648C68.679 157.799 68.2642 157.875 67.7642 157.875C67.0938 157.875 66.4858 157.718 65.9403 157.403C65.3987 157.085 64.9669 156.612 64.6449 155.983C64.3267 155.35 64.1676 154.559 64.1676 153.608C64.1676 152.65 64.3267 151.841 64.6449 151.182C64.9669 150.519 65.4006 150.017 65.946 149.676C66.4915 149.331 67.0994 149.159 67.7699 149.159C68.2813 149.159 68.7017 149.246 69.0312 149.42C69.3646 149.591 69.6297 149.797 69.8267 150.04C70.0237 150.278 70.1733 150.504 70.2756 150.716H70.3892V149.273H72.4176V158.142C72.4176 158.888 72.2396 159.506 71.8835 159.994C71.5275 160.483 71.0407 160.848 70.4233 161.091C69.8059 161.333 69.1051 161.455 68.321 161.455ZM68.3381 156.261C68.7737 156.261 69.1449 156.155 69.4517 155.943C69.7585 155.731 69.9915 155.426 70.1506 155.028C70.3097 154.631 70.3892 154.153 70.3892 153.597C70.3892 153.047 70.3097 152.566 70.1506 152.153C69.9953 151.741 69.7642 151.42 69.4574 151.193C69.1544 150.962 68.7813 150.847 68.3381 150.847C67.8797 150.847 67.4972 150.966 67.1903 151.205C66.8835 151.443 66.6525 151.771 66.4972 152.188C66.3419 152.6 66.2642 153.07 66.2642 153.597C66.2642 154.131 66.3419 154.598 66.4972 155C66.6563 155.398 66.8892 155.708 67.196 155.932C67.5066 156.152 67.8873 156.261 68.3381 156.261ZM76.5824 146.364V158H74.5256V146.364H76.5824ZM78.6974 158V149.273H80.7543V158H78.6974ZM79.7315 148.034C79.4058 148.034 79.1255 147.926 78.8906 147.71C78.6558 147.491 78.5384 147.227 78.5384 146.92C78.5384 146.61 78.6558 146.347 78.8906 146.131C79.1255 145.911 79.4058 145.801 79.7315 145.801C80.0611 145.801 80.3414 145.911 80.5724 146.131C80.8073 146.347 80.9247 146.61 80.9247 146.92C80.9247 147.227 80.8073 147.491 80.5724 147.71C80.3414 147.926 80.0611 148.034 79.7315 148.034ZM89.767 151.58L87.892 151.784C87.839 151.595 87.7462 151.417 87.6136 151.25C87.4848 151.083 87.3106 150.949 87.0909 150.847C86.8712 150.744 86.6023 150.693 86.2841 150.693C85.8561 150.693 85.4962 150.786 85.2045 150.972C84.9167 151.157 84.7746 151.398 84.7784 151.693C84.7746 151.947 84.8674 152.153 85.0568 152.312C85.25 152.472 85.5682 152.602 86.0114 152.705L87.5 153.023C88.3258 153.201 88.9394 153.483 89.3409 153.869C89.7462 154.256 89.9508 154.761 89.9545 155.386C89.9508 155.936 89.7898 156.42 89.4716 156.841C89.1572 157.258 88.7197 157.583 88.1591 157.818C87.5985 158.053 86.9545 158.17 86.2273 158.17C85.1591 158.17 84.2992 157.947 83.6477 157.5C82.9962 157.049 82.608 156.422 82.483 155.619L84.4886 155.426C84.5795 155.82 84.7727 156.117 85.0682 156.318C85.3636 156.519 85.7481 156.619 86.2216 156.619C86.7102 156.619 87.1023 156.519 87.3977 156.318C87.697 156.117 87.8466 155.869 87.8466 155.574C87.8466 155.324 87.75 155.117 87.5568 154.955C87.3674 154.792 87.072 154.667 86.6705 154.58L85.1818 154.267C84.3447 154.093 83.7254 153.799 83.3239 153.386C82.9223 152.97 82.7235 152.443 82.7273 151.807C82.7235 151.269 82.8693 150.803 83.1648 150.409C83.464 150.011 83.8788 149.705 84.4091 149.489C84.9432 149.269 85.5587 149.159 86.2557 149.159C87.2784 149.159 88.0833 149.377 88.6705 149.812C89.2614 150.248 89.6269 150.837 89.767 151.58ZM93.7074 152.886V158H91.6506V146.364H93.6619V150.756H93.7642C93.9688 150.263 94.285 149.875 94.7131 149.591C95.1449 149.303 95.6941 149.159 96.3608 149.159C96.9669 149.159 97.4953 149.286 97.946 149.54C98.3968 149.794 98.7453 150.165 98.9915 150.653C99.2415 151.142 99.3665 151.739 99.3665 152.443V158H97.3097V152.761C97.3097 152.174 97.1581 151.718 96.8551 151.392C96.5559 151.062 96.1354 150.898 95.5938 150.898C95.2301 150.898 94.9044 150.977 94.6165 151.136C94.3324 151.292 94.1089 151.517 93.946 151.812C93.7869 152.108 93.7074 152.466 93.7074 152.886Z" fill="white"/>
<path d="M334.71 147.21C334.617 147.116 334.506 147.042 334.385 146.991C334.263 146.94 334.132 146.914 334 146.914C333.868 146.914 333.737 146.94 333.615 146.991C333.494 147.042 333.383 147.116 333.29 147.21L325.84 154.67L322.71 151.53C322.613 151.437 322.499 151.363 322.375 151.314C322.25 151.265 322.116 151.241 321.982 151.243C321.848 151.246 321.716 151.274 321.593 151.328C321.47 151.381 321.358 151.458 321.265 151.555C321.172 151.652 321.098 151.765 321.049 151.89C321 152.015 320.976 152.148 320.978 152.283C320.981 152.417 321.009 152.549 321.063 152.672C321.116 152.795 321.193 152.907 321.29 153L325.13 156.84C325.223 156.934 325.334 157.008 325.455 157.059C325.577 157.11 325.708 157.136 325.84 157.136C325.972 157.136 326.103 157.11 326.225 157.059C326.346 157.008 326.457 156.934 326.55 156.84L334.71 148.68C334.811 148.586 334.892 148.473 334.948 148.346C335.003 148.22 335.032 148.083 335.032 147.945C335.032 147.807 335.003 147.67 334.948 147.544C334.892 147.417 334.811 147.304 334.71 147.21Z" fill="white"/>
<path d="M131.917 93V75.5455H135.079V90.3494H142.766V93H131.917ZM149.141 93.2642C148.312 93.2642 147.565 93.1165 146.9 92.821C146.241 92.5199 145.718 92.0767 145.332 91.4915C144.951 90.9062 144.761 90.1847 144.761 89.3267C144.761 88.5881 144.897 87.9773 145.17 87.4943C145.442 87.0114 145.815 86.625 146.286 86.3352C146.758 86.0455 147.289 85.8267 147.88 85.679C148.477 85.5256 149.093 85.4148 149.729 85.3466C150.496 85.267 151.119 85.196 151.596 85.1335C152.073 85.0653 152.42 84.9631 152.636 84.8267C152.857 84.6847 152.968 84.4659 152.968 84.1705V84.1193C152.968 83.4773 152.778 82.9801 152.397 82.6278C152.016 82.2756 151.468 82.0994 150.752 82.0994C149.996 82.0994 149.397 82.2642 148.954 82.5938C148.516 82.9233 148.221 83.3125 148.067 83.7614L145.187 83.3523C145.414 82.5568 145.789 81.892 146.312 81.358C146.835 80.8182 147.474 80.4148 148.229 80.1477C148.985 79.875 149.82 79.7386 150.735 79.7386C151.366 79.7386 151.994 79.8125 152.619 79.9602C153.244 80.108 153.815 80.3523 154.332 80.6932C154.849 81.0284 155.263 81.4858 155.576 82.0653C155.894 82.6449 156.053 83.3693 156.053 84.2386V93H153.087V91.2017H152.985C152.798 91.5653 152.533 91.9062 152.192 92.2244C151.857 92.5369 151.434 92.7898 150.923 92.983C150.417 93.1705 149.823 93.2642 149.141 93.2642ZM149.942 90.9972C150.562 90.9972 151.099 90.875 151.553 90.6307C152.008 90.3807 152.357 90.0511 152.602 89.642C152.852 89.233 152.977 88.7869 152.977 88.304V86.7614C152.88 86.8409 152.715 86.9148 152.482 86.983C152.255 87.0511 151.999 87.1108 151.715 87.1619C151.431 87.2131 151.15 87.2585 150.871 87.2983C150.593 87.3381 150.352 87.3722 150.147 87.4006C149.687 87.4631 149.275 87.5653 148.911 87.7074C148.548 87.8494 148.261 88.0483 148.05 88.304C147.84 88.554 147.735 88.8778 147.735 89.2756C147.735 89.8438 147.942 90.2727 148.357 90.5625C148.772 90.8523 149.3 90.9972 149.942 90.9972ZM162.241 85.3295V93H159.156V79.9091H162.104V82.1335H162.258C162.559 81.4006 163.039 80.8182 163.698 80.3864C164.363 79.9545 165.184 79.7386 166.161 79.7386C167.065 79.7386 167.852 79.9318 168.522 80.3182C169.198 80.7045 169.721 81.2642 170.09 81.9972C170.465 82.7301 170.65 83.6193 170.644 84.6648V93H167.559V85.142C167.559 84.267 167.332 83.5824 166.877 83.0881C166.428 82.5937 165.806 82.3466 165.011 82.3466C164.471 82.3466 163.991 82.4659 163.57 82.7045C163.156 82.9375 162.829 83.2756 162.59 83.7188C162.357 84.1619 162.241 84.6989 162.241 85.3295ZM179.474 98.1818C178.366 98.1818 177.414 98.0313 176.619 97.7301C175.823 97.4347 175.184 97.0369 174.701 96.5369C174.218 96.0369 173.883 95.483 173.695 94.875L176.474 94.2017C176.599 94.4574 176.781 94.7102 177.019 94.9602C177.258 95.2159 177.579 95.4261 177.982 95.5909C178.391 95.7614 178.906 95.8466 179.525 95.8466C180.4 95.8466 181.124 95.6335 181.698 95.2074C182.272 94.7869 182.559 94.0938 182.559 93.1278V90.6477H182.406C182.246 90.9659 182.013 91.2926 181.707 91.6278C181.406 91.9631 181.005 92.2443 180.505 92.4716C180.011 92.6989 179.388 92.8125 178.638 92.8125C177.633 92.8125 176.721 92.5767 175.903 92.1051C175.09 91.6278 174.442 90.9176 173.96 89.9744C173.482 89.0256 173.244 87.8381 173.244 86.4119C173.244 84.9744 173.482 83.7614 173.96 82.7727C174.442 81.7784 175.093 81.0256 175.911 80.5142C176.729 79.9972 177.641 79.7386 178.647 79.7386C179.414 79.7386 180.045 79.8693 180.539 80.1307C181.039 80.3864 181.437 80.696 181.732 81.0597C182.028 81.4176 182.252 81.7557 182.406 82.0739H182.576V79.9091H185.619V93.2131C185.619 94.3324 185.352 95.2585 184.817 95.9915C184.283 96.7244 183.553 97.2727 182.627 97.6364C181.701 98 180.65 98.1818 179.474 98.1818ZM179.499 90.392C180.153 90.392 180.71 90.233 181.17 89.9148C181.63 89.5966 181.979 89.1392 182.218 88.5426C182.457 87.946 182.576 87.2301 182.576 86.3949C182.576 85.571 182.457 84.8494 182.218 84.2301C181.985 83.6108 181.638 83.1307 181.178 82.7898C180.724 82.4432 180.164 82.2699 179.499 82.2699C178.812 82.2699 178.238 82.4489 177.778 82.8068C177.317 83.1648 176.971 83.6562 176.738 84.2812C176.505 84.9006 176.388 85.6051 176.388 86.3949C176.388 87.196 176.505 87.8977 176.738 88.5C176.977 89.0966 177.326 89.5625 177.786 89.8977C178.252 90.2273 178.823 90.392 179.499 90.392ZM197.124 87.4943V79.9091H200.21V93H197.218V90.6733H197.082C196.786 91.4062 196.3 92.0057 195.624 92.4716C194.954 92.9375 194.127 93.1705 193.144 93.1705C192.286 93.1705 191.528 92.9801 190.869 92.5994C190.215 92.2131 189.704 91.6534 189.335 90.9205C188.965 90.1818 188.781 89.2898 188.781 88.2443V79.9091H191.866V87.767C191.866 88.5966 192.093 89.2557 192.548 89.7443C193.002 90.233 193.599 90.4773 194.337 90.4773C194.792 90.4773 195.232 90.3665 195.658 90.1449C196.085 89.9233 196.434 89.5938 196.707 89.1562C196.985 88.7131 197.124 88.1591 197.124 87.4943ZM207.149 93.2642C206.32 93.2642 205.572 93.1165 204.908 92.821C204.249 92.5199 203.726 92.0767 203.339 91.4915C202.959 90.9062 202.768 90.1847 202.768 89.3267C202.768 88.5881 202.905 87.9773 203.178 87.4943C203.45 87.0114 203.822 86.625 204.294 86.3352C204.766 86.0455 205.297 85.8267 205.888 85.679C206.484 85.5256 207.101 85.4148 207.737 85.3466C208.504 85.267 209.126 85.196 209.604 85.1335C210.081 85.0653 210.428 84.9631 210.643 84.8267C210.865 84.6847 210.976 84.4659 210.976 84.1705V84.1193C210.976 83.4773 210.786 82.9801 210.405 82.6278C210.024 82.2756 209.476 82.0994 208.76 82.0994C208.004 82.0994 207.405 82.2642 206.962 82.5938C206.524 82.9233 206.229 83.3125 206.075 83.7614L203.195 83.3523C203.422 82.5568 203.797 81.892 204.32 81.358C204.842 80.8182 205.482 80.4148 206.237 80.1477C206.993 79.875 207.828 79.7386 208.743 79.7386C209.374 79.7386 210.001 79.8125 210.626 79.9602C211.251 80.108 211.822 80.3523 212.339 80.6932C212.857 81.0284 213.271 81.4858 213.584 82.0653C213.902 82.6449 214.061 83.3693 214.061 84.2386V93H211.095V91.2017H210.993C210.805 91.5653 210.541 91.9062 210.2 92.2244C209.865 92.5369 209.442 92.7898 208.93 92.983C208.425 93.1705 207.831 93.2642 207.149 93.2642ZM207.95 90.9972C208.57 90.9972 209.107 90.875 209.561 90.6307C210.016 90.3807 210.365 90.0511 210.609 89.642C210.859 89.233 210.984 88.7869 210.984 88.304V86.7614C210.888 86.8409 210.723 86.9148 210.49 86.983C210.263 87.0511 210.007 87.1108 209.723 87.1619C209.439 87.2131 209.158 87.2585 208.879 87.2983C208.601 87.3381 208.359 87.3722 208.155 87.4006C207.695 87.4631 207.283 87.5653 206.919 87.7074C206.555 87.8494 206.268 88.0483 206.058 88.304C205.848 88.554 205.743 88.8778 205.743 89.2756C205.743 89.8438 205.95 90.2727 206.365 90.5625C206.78 90.8523 207.308 90.9972 207.95 90.9972ZM222.857 98.1818C221.749 98.1818 220.797 98.0313 220.001 97.7301C219.206 97.4347 218.567 97.0369 218.084 96.5369C217.601 96.0369 217.266 95.483 217.078 94.875L219.857 94.2017C219.982 94.4574 220.163 94.7102 220.402 94.9602C220.641 95.2159 220.962 95.4261 221.365 95.5909C221.774 95.7614 222.288 95.8466 222.908 95.8466C223.783 95.8466 224.507 95.6335 225.081 95.2074C225.655 94.7869 225.942 94.0938 225.942 93.1278V90.6477H225.788C225.629 90.9659 225.396 91.2926 225.089 91.6278C224.788 91.9631 224.388 92.2443 223.888 92.4716C223.393 92.6989 222.771 92.8125 222.021 92.8125C221.016 92.8125 220.104 92.5767 219.286 92.1051C218.473 91.6278 217.825 90.9176 217.342 89.9744C216.865 89.0256 216.626 87.8381 216.626 86.4119C216.626 84.9744 216.865 83.7614 217.342 82.7727C217.825 81.7784 218.476 81.0256 219.294 80.5142C220.112 79.9972 221.024 79.7386 222.03 79.7386C222.797 79.7386 223.428 79.8693 223.922 80.1307C224.422 80.3864 224.82 80.696 225.115 81.0597C225.411 81.4176 225.635 81.7557 225.788 82.0739H225.959V79.9091H229.001V93.2131C229.001 94.3324 228.734 95.2585 228.2 95.9915C227.666 96.7244 226.936 97.2727 226.01 97.6364C225.084 98 224.033 98.1818 222.857 98.1818ZM222.882 90.392C223.536 90.392 224.092 90.233 224.553 89.9148C225.013 89.5966 225.362 89.1392 225.601 88.5426C225.839 87.946 225.959 87.2301 225.959 86.3949C225.959 85.571 225.839 84.8494 225.601 84.2301C225.368 83.6108 225.021 83.1307 224.561 82.7898C224.107 82.4432 223.547 82.2699 222.882 82.2699C222.195 82.2699 221.621 82.4489 221.161 82.8068C220.7 83.1648 220.354 83.6562 220.121 84.2812C219.888 84.9006 219.771 85.6051 219.771 86.3949C219.771 87.196 219.888 87.8977 220.121 88.5C220.359 89.0966 220.709 89.5625 221.169 89.8977C221.635 90.2273 222.206 90.392 222.882 90.392ZM237.959 93.2557C236.646 93.2557 235.513 92.983 234.558 92.4375C233.609 91.8864 232.879 91.108 232.368 90.1023C231.857 89.0909 231.601 87.9006 231.601 86.5312C231.601 85.1847 231.857 84.0028 232.368 82.9858C232.885 81.9631 233.607 81.1676 234.533 80.5994C235.459 80.0256 236.547 79.7386 237.797 79.7386C238.604 79.7386 239.365 79.8693 240.081 80.1307C240.803 80.3864 241.439 80.7841 241.99 81.3239C242.547 81.8636 242.984 82.5511 243.303 83.3864C243.621 84.2159 243.78 85.2045 243.78 86.3523V87.2983H233.05V85.2188H240.822C240.817 84.6278 240.689 84.1023 240.439 83.642C240.189 83.1761 239.839 82.8097 239.391 82.5426C238.947 82.2756 238.43 82.142 237.839 82.142C237.209 82.142 236.655 82.2955 236.178 82.6023C235.7 82.9034 235.328 83.3011 235.061 83.7955C234.8 84.2841 234.666 84.821 234.661 85.4062V87.2216C234.661 87.983 234.8 88.6364 235.078 89.1818C235.357 89.7216 235.746 90.1364 236.246 90.4261C236.746 90.7102 237.331 90.8523 238.001 90.8523C238.45 90.8523 238.857 90.7898 239.22 90.6648C239.584 90.5341 239.899 90.3438 240.166 90.0938C240.433 89.8438 240.635 89.5341 240.771 89.1648L243.652 89.4886C243.47 90.25 243.124 90.9148 242.612 91.483C242.107 92.0455 241.459 92.483 240.669 92.7955C239.879 93.1023 238.976 93.2557 237.959 93.2557Z" fill="#333647"/>
<path d="M37 83H29.41L32.71 79.71C32.8983 79.5217 33.0041 79.2663 33.0041 79C33.0041 78.7337 32.8983 78.4783 32.71 78.29C32.5217 78.1017 32.2663 77.9959 32 77.9959C31.7337 77.9959 31.4783 78.1017 31.29 78.29L26.29 83.29C26.199 83.3851 26.1276 83.4973 26.08 83.62C25.98 83.8635 25.98 84.1365 26.08 84.38C26.1276 84.5028 26.199 84.6149 26.29 84.71L31.29 89.71C31.383 89.8037 31.4936 89.8781 31.6154 89.9289C31.7373 89.9797 31.868 90.0058 32 90.0058C32.132 90.0058 32.2627 89.9797 32.3846 89.9289C32.5065 89.8781 32.6171 89.8037 32.71 89.71C32.8037 89.617 32.8781 89.5064 32.9289 89.3846C32.9797 89.2627 33.0058 89.132 33.0058 89C33.0058 88.868 32.9797 88.7373 32.9289 88.6154C32.8781 88.4936 32.8037 88.383 32.71 88.29L29.41 85H37C37.2652 85 37.5196 84.8946 37.7071 84.7071C37.8947 84.5196 38 84.2652 38 84C38 83.7348 37.8947 83.4804 37.7071 83.2929C37.5196 83.1054 37.2652 83 37 83Z" fill="#7C82A1"/>
<path opacity="0.35" d="M336.5 20C336.5 18.8034 337.47 17.8334 338.667 17.8334H355.333C356.53 17.8334 357.5 18.8034 357.5 20V26C357.5 27.1967 356.53 28.1667 355.333 28.1667H338.667C337.47 28.1667 336.5 27.1967 336.5 26V20Z" stroke="#333647"/>
<path opacity="0.4" d="M359 21.0001V25.0001C359.805 24.6613 360.328 23.8732 360.328 23.0001C360.328 22.1269 359.805 21.3388 359 21.0001Z" fill="#333647"/>
<path d="M338 20.6667C338 19.9303 338.597 19.3334 339.333 19.3334H354.667C355.403 19.3334 356 19.9303 356 20.6667V25.3334C356 26.0698 355.403 26.6667 354.667 26.6667H339.333C338.597 26.6667 338 26.0698 338 25.3334V20.6667Z" fill="#333647"/>
<path fill-rule="evenodd" clip-rule="evenodd" d="M323.33 19.608C325.546 19.6081 327.677 20.4596 329.283 21.9863C329.404 22.1042 329.598 22.1027 329.717 21.983L330.873 20.8163C330.933 20.7556 330.967 20.6734 330.966 20.5878C330.966 20.5022 330.931 20.4204 330.87 20.3603C326.655 16.3208 320.005 16.3208 315.79 20.3603C315.729 20.4203 315.694 20.5021 315.694 20.5877C315.693 20.6733 315.727 20.7556 315.787 20.8163L316.943 21.983C317.062 22.1029 317.256 22.1044 317.377 21.9863C318.983 20.4595 321.114 19.608 323.33 19.608ZM323.33 23.4037C324.548 23.4036 325.722 23.8561 326.624 24.6733C326.746 24.7893 326.939 24.7868 327.058 24.6677L328.212 23.501C328.273 23.4398 328.307 23.3568 328.306 23.2705C328.305 23.1843 328.27 23.102 328.208 23.042C325.459 20.4856 321.204 20.4856 318.455 23.042C318.393 23.102 318.358 23.1843 318.357 23.2706C318.356 23.3569 318.39 23.4399 318.451 23.501L319.605 24.6677C319.724 24.7868 319.917 24.7893 320.039 24.6733C320.941 23.8567 322.114 23.4042 323.33 23.4037ZM325.643 25.9575C325.645 26.044 325.611 26.1274 325.549 26.188L323.552 28.2037C323.493 28.2629 323.414 28.2963 323.33 28.2963C323.247 28.2963 323.167 28.2629 323.109 28.2037L321.111 26.188C321.049 26.1274 321.015 26.0439 321.017 25.9574C321.019 25.8709 321.056 25.789 321.121 25.731C322.396 24.6521 324.264 24.6521 325.54 25.731C325.604 25.7891 325.642 25.871 325.643 25.9575Z" fill="#333647"/>
<path fill-rule="evenodd" clip-rule="evenodd" d="M309.667 17.6666H308.667C308.114 17.6666 307.667 18.1143 307.667 18.6666V27.3333C307.667 27.8856 308.114 28.3333 308.667 28.3333H309.667C310.219 28.3333 310.667 27.8856 310.667 27.3333V18.6666C310.667 18.1143 310.219 17.6666 309.667 17.6666ZM304 20H305C305.552 20 306 20.4477 306 21V27.3333C306 27.8856 305.552 28.3333 305 28.3333H304C303.448 28.3333 303 27.8856 303 27.3333V21C303 20.4477 303.448 20 304 20ZM300.333 22.3333H299.333C298.781 22.3333 298.333 22.781 298.333 23.3333V27.3333C298.333 27.8856 298.781 28.3333 299.333 28.3333H300.333C300.886 28.3333 301.333 27.8856 301.333 27.3333V23.3333C301.333 22.781 300.886 22.3333 300.333 22.3333ZM295.667 24.3333H294.667C294.114 24.3333 293.667 24.781 293.667 25.3333V27.3333C293.667 27.8856 294.114 28.3333 294.667 28.3333H295.667C296.219 28.3333 296.667 27.8856 296.667 27.3333V25.3333C296.667 24.781 296.219 24.3333 295.667 24.3333Z" fill="#333647"/>
<path d="M37.3207 28.2563C40.0087 28.2563 41.6053 26.1543 41.6053 22.5947C41.6053 21.2544 41.349 20.1265 40.8583 19.2549C40.1478 17.8999 38.9247 17.1675 37.3793 17.1675C35.0795 17.1675 33.4535 18.7129 33.4535 20.8809C33.4535 22.917 34.9183 24.3965 36.9325 24.3965C38.1703 24.3965 39.1737 23.8179 39.6718 22.8145H39.6937C39.6937 22.8145 39.723 22.8145 39.7303 22.8145C39.745 22.8145 39.7963 22.8145 39.7963 22.8145C39.7963 25.2314 38.8807 26.6743 37.3353 26.6743C36.4271 26.6743 35.724 26.1763 35.4823 25.3779H33.6C33.9149 27.1138 35.3871 28.2563 37.3207 28.2563ZM37.3866 22.895C36.1708 22.895 35.3065 22.0308 35.3065 20.8223C35.3065 19.6431 36.2147 18.7422 37.3939 18.7422C38.5731 18.7422 39.4813 19.6577 39.4813 20.8516C39.4813 22.0308 38.5951 22.895 37.3866 22.895Z" fill="#333647"/>
<path d="M44.6965 28.1538C45.3923 28.1538 45.8683 27.6558 45.8683 26.9966C45.8683 26.3301 45.3923 25.8394 44.6965 25.8394C44.008 25.8394 43.5246 26.3301 43.5246 26.9966C43.5246 27.6558 44.008 28.1538 44.6965 28.1538ZM44.6965 22.6606C45.3923 22.6606 45.8683 22.1699 45.8683 21.5107C45.8683 20.8442 45.3923 20.3535 44.6965 20.3535C44.008 20.3535 43.5246 20.8442 43.5246 21.5107C43.5246 22.1699 44.008 22.6606 44.6965 22.6606Z" fill="#333647"/>
<path d="M52.7241 28H54.5332V26.0298H55.9614V24.4331H54.5332V17.4312H51.8672C49.9995 20.2437 48.5127 22.5947 47.5605 24.3452V26.0298H52.7241V28ZM49.311 24.3672C50.5415 22.1992 51.6401 20.4634 52.6509 18.9692H52.7534V24.4771H49.311V24.3672Z" fill="#333647"/>
<path d="M59.99 28H61.8797V17.4312H59.9973L57.2361 19.3647V21.1812L59.8655 19.3354H59.99V28Z" fill="#333647"/>
<rect width="375" height="34" transform="translate(0 778)" fill="white"/>
<rect opacity="0.16" x="121" y="799" width="134" height="5" rx="2.5" fill="#22242F"/>
</g>
<defs>
<clipPath id="clip0_0_56">
<rect width="375" height="812" rx="16" fill="white"/>
</clipPath>
</defs>
</svg>
